<?xml version="1.0" encoding="UTF-8"?>
<svg viewBox="0 0 300 220" xmlns="http://www.w3.org/2000/svg" width="100%" height="100%">
  <defs>
    <radialGradient id="lbg" cx="50%" cy="40%" r="70%">
      <stop offset="0%" stop-color="#0d1520"/>
      <stop offset="100%" stop-color="#0a0a0f"/>
    </radialGradient>
    <linearGradient id="lg1" x1="0%" y1="0%" x2="100%" y2="100%">
      <stop offset="0%" stop-color="#7c3aed"/>
      <stop offset="100%" stop-color="#06b6d4"/>
    </linearGradient>
  </defs>
  <rect width="300" height="220" fill="url(#lbg)"/>
  <ellipse cx="150" cy="130" rx="100" ry="40" fill="rgba(124,58,237,0.08)"/>
  <!-- lid -->
  <rect x="55" y="35" width="190" height="120" rx="8" fill="#141420" stroke="#2a2a3e" stroke-width="1.5"/>
  <rect x="62" y="42" width="176" height="106" rx="5" fill="#080810"/>
  <!-- screen content -->
  <!-- code lines -->
  <rect x="72" y="55" width="60" height="5" rx="2" fill="#7c3aed" opacity="0.7"/>
  <rect x="80" y="65" width="90" height="4" rx="2" fill="#2d2d4e"/>
  <rect x="80" y="73" width="70" height="4" rx="2" fill="#06b6d4" opacity="0.5"/>
  <rect x="80" y="81" width="110" height="4" rx="2" fill="#2d2d4e"/>
  <rect x="80" y="89" width="50" height="4" rx="2" fill="#a78bfa" opacity="0.6"/>
  <rect x="80" y="97" width="95" height="4" rx="2" fill="#2d2d4e"/>
  <rect x="80" y="105" width="75" height="4" rx="2" fill="#06b6d4" opacity="0.4"/>
  <rect x="80" y="113" width="55" height="4" rx="2" fill="#7c3aed" opacity="0.5"/>
  <!-- cursor blink -->
  <rect x="144" y="113" width="2" height="9" rx="1" fill="#a78bfa"/>
  <!-- camera dot -->
  <circle cx="150" cy="46" r="3" fill="#1e1e30"/>
  <circle cx="150" cy="46" r="1.5" fill="#7c3aed" opacity="0.5"/>
  <!-- base -->
  <path d="M 45 155 L 55 155 L 55 162 L 245 162 L 245 155 L 255 155 L 265 168 Q 265 172 260 172 L 40 172 Q 35 172 35 168 Z" fill="#1a1a28" stroke="#2a2a3e" stroke-width="1"/>
  <!-- trackpad -->
  <rect x="125" y="157" width="50" height="8" rx="4" fill="#111118" stroke="#2a2a3e" stroke-width="1"/>
</svg>